<?xml version="1.0" encoding="UTF-8"?>
<svg id="Layer_2" data-name="Layer 2" xmlns="http://www.w3.org/2000/svg" viewBox="0 0 372.81 77.82">
  <defs>
    <style>
      .cls-1 {
        fill: #a21c41;
      }

      .cls-2 {
        fill-rule: evenodd;
      }

      .cls-2, .cls-3 {
        fill: #fff;
      }

      .cls-4 {
        fill: none;
        stroke: #fff;
        stroke-miterlimit: 10;
      }

      .cls-3 {
        font-family: Poppins-SemiBold, Poppins;
        font-size: 12.87px;
        font-weight: 600;
      }
    </style>
  </defs>
  <g id="Layer_1-2" data-name="Layer 1">
    <rect class="cls-1" width="372.81" height="77.82"/>
    <g>
      <text class="cls-3" transform="translate(272.73 34.87)"><tspan x="0" y="0">SCHOOL OF</tspan><tspan x="0" y="15.45">ENGINEERING</tspan></text>
      <path class="cls-2" d="m66.45,60.75l3.17-6.95c.33-.7.64-1.43,1.82-1.43,0,0-.45.71-.78,1.43l-4.72,10.37-4.72-10.37c-.33-.71-.78-1.43-.78-1.43,2.16,0,2.5.73,2.82,1.43l3.18,6.95Zm8.55,2.64h-1.86v-9.31c0-.78,0-1.71,2.02-1.71,0,0-.16.93-.16,1.71v9.31Zm6.19-10.1c-1.49,0-2.2.79-2.2,1.66,0,.43.22.84.64,1.04l3.88,1.89c1.16.57,1.71,1.52,1.71,2.47,0,1.55-1.44,3.12-4.04,3.12-1.24,0-2.33-.06-3.77-.08l.82-1.16c.93.22,2.05.36,2.93.36,1.72,0,2.53-.87,2.53-1.68,0-.45-.25-.88-.74-1.12l-3.8-1.88c-1.04-.51-1.58-1.51-1.58-2.51,0-1.47,1.16-2.95,3.63-2.95,1.1,0,2.22.06,3.49.08,0,.11-.02,1.04-1.13,1.04-.93-.16-1.66-.28-2.36-.28Zm7.82,4.21h5.04v-3.41c0-.78,0-1.71,2.02-1.71,0,0-.15.93-.15,1.71v7.78c0,.78.15,1.69.15,1.69-2.02,0-2.02-.93-2.02-1.71v-3.41h-5.04v3.41c0,.78,0,1.71-2.02,1.71,0,0,.16-.92.16-1.69v-7.78c0-.78-.16-1.71-.16-1.71,2.02,0,2.02.93,2.02,1.71v3.41Zm16.95-5.74l4.16,8.69,2.31-6.58c.25-.73.56-1.49,1.65-1.49,0,0-.37.74-.64,1.49l-3.6,10.31-4.33-9.14-4.11,9.14-3.6-10.31c-.26-.74-.64-1.49-.64-1.49,2.06,0,2.31.76,2.58,1.49l2.31,6.6,3.91-8.71Zm10.8,6.67h2.98l-1.49-3.26-1.49,3.26Zm3.4.93h-3.82l-1.26,2.76c-.33.7-.64,1.43-1.82,1.43,0,0,.45-.71.78-1.43l4.72-10.37,4.72,10.37c.33.71.78,1.43.78,1.43-2.16,0-2.5-.73-2.82-1.43l-1.27-2.76Zm15.54,1.4l3.17-6.95c.33-.7.64-1.43,1.82-1.43,0,0-.45.71-.78,1.43l-4.72,10.37-4.72-10.37c-.33-.71-.78-1.43-.78-1.43,2.16,0,2.5.73,2.82,1.43l3.18,6.95Zm8.55,2.64h-1.86v-9.31c0-.78,0-1.71,2.02-1.71,0,0-.15.93-.15,1.71v9.31Zm4.81-10.06v9.25c.67.02,1.26.05,1.85.05,2.39,0,3.41-2.02,3.41-4.67s-1.21-4.67-3.41-4.67c-.67,0-1.26.05-1.85.05Zm1.83-.88c3.21,0,5.37,2.42,5.37,5.51s-2.16,5.51-5.37,5.51c-1.46,0-2.65-.08-3.85-.08,0,0,.16-.84.16-1.55v-7.76c0-.78-.16-1.55-.16-1.55,1.29-.02,2.56-.08,3.85-.08Zm12.04,4.77c-.31.42-.42,1.24-.42,1.75v4.42h-1.86v-4.42c0-.51-.11-1.09-.42-1.51l-2.53-3.35c-.45-.61-1.61-1.74-1.61-1.74,2.56,0,3.07.68,3.59,1.37l2.33,3.07,2.34-3.13c.48-.65.98-1.3,2.5-1.3,0,0-.93.89-1.38,1.49l-2.53,3.35Zm6.63,1.21h2.98l-1.49-3.26-1.49,3.26Zm3.4.93h-3.82l-1.26,2.76c-.33.7-.64,1.43-1.82,1.43,0,0,.45-.71.78-1.43l4.72-10.37,4.72,10.37c.33.71.78,1.43.78,1.43-2.16,0-2.5-.73-2.82-1.43l-1.27-2.76Zm7.2-6.05v4.45c.61.03,1.27.05,1.71.05,1.13,0,2.08-.84,2.08-2.34s-.95-2.19-2.08-2.19c-.56,0-1.12.03-1.71.03Zm5.68,2.16c0,1.85-1.68,3.07-3.66,3.07-.67,0-1.35-.05-2.02-.05v3.35c0,.78,0,1.71-2.02,1.71,0,0,.16-.93.16-1.71v-7.76c0-.78-.16-1.55-.16-1.55h2.25c.34,0,.61,0,.88-.02.28,0,.57-.02.9-.02,1.99,0,3.66,1.1,3.66,2.96Zm3.65,7h4.19c1.09,0,1.09.93,1.09.93h-7.29s.16-.76.16-1.54v-7.78c0-.78-.16-1.55-.16-1.55h7.29s0,.93-1.09.93h-4.19v4.04h3.88v.93h-3.88v4.04Zm9.16,0h4.19c1.09,0,1.09.93,1.09.93h-7.29s.16-.76.16-1.54v-7.78c0-.78-.16-1.55-.16-1.55h7.29s0,.93-1.09.93h-4.19v4.04h3.88v.93h-3.88v4.04Zm6.05-9.93h10.4c0,.06-.01.96-.78.96-.98-.02-1.49-.06-2.62-.06h-.79v9.96h-2.02v-9.96h-.79c-1.13,0-1.64.05-2.62.06-.76,0-.78-.9-.78-.96Zm13.5,4.97h5.04v-3.41c0-.78,0-1.71,2.02-1.71,0,0-.15.93-.15,1.71v7.78c0,.78.15,1.69.15,1.69-2.02,0-2.02-.93-2.02-1.71v-3.41h-5.04v3.41c0,.78,0,1.71-2.02,1.71,0,0,.16-.92.16-1.69v-7.78c0-.78-.16-1.71-.16-1.71,2.02,0,2.02.93,2.02,1.71v3.41Zm11.64.93h2.98l-1.49-3.26-1.49,3.26Zm3.4.93h-3.82l-1.26,2.76c-.33.7-.64,1.43-1.82,1.43,0,0,.45-.71.78-1.43l4.72-10.37,4.72,10.37c.33.71.78,1.43.78,1.43-2.16,0-2.5-.73-2.82-1.43l-1.27-2.76Zm12.52,4.81l-4.16-8.69-2.31,6.58c-.25.73-.56,1.49-1.64,1.49,0,0,.37-.74.64-1.49l3.6-10.31,4.33,9.14,4.11-9.14,3.6,10.31c.26.74.64,1.49.64,1.49-2.06,0-2.31-.76-2.58-1.49l-2.31-6.6-3.91,8.71Zm-174.36-31.07l4.24-9.31,4.26,9.31h-8.5Zm5.77-20.82l-14.06,30.9c-.65,1.42-1.9,3.54-2.67,4.81h.35c2.86,0,4.19-1.35,5.08-2.9.29-.5.53-1.02.76-1.52l.07-.16,3.48-7.65h10.93l3.5,7.65c1,2.14,2.13,4.57,8.92,4.57h.36s-1.7-2.68-2.67-4.81l-14.06-30.9Zm57.22,0l-12.26,27.24-12.9-27.24-10.73,30.71c-.79,2.22-2.17,4.99-2.17,4.99h.27c3.79,0,4.77-2.9,5.42-4.81l6.45-18.35,12.33,25.77,11.58-25.77,6.47,18.44c.8,2.21,1.71,4.72,8.17,4.72h.26s-1.37-2.77-2.16-4.99l-10.73-30.71Zm48.14,6.55v29.06h6.66v-29.06c0-2.24.45-4.97.45-5l.11-.64h-.65c-6.57,0-6.57,3.26-6.57,5.64Zm40.71-2.22c2.26,0,2.87-2.15,2.87-3.42h-32.1c0,1.27.6,3.42,2.87,3.42,1.2-.02,2.17-.05,3.12-.09,1.39-.05,2.71-.1,4.69-.1h1.81v31.44h7.12v-31.44h1.81c1.98,0,3.3.05,4.69.1.94.03,1.92.07,3.12.09Zm-48.8,27.64l-8.84-11.83c5.37-.93,9.65-4.83,9.34-10.54-.3-5.4-5.17-8.69-11.1-8.69-4.39,0-8.46.19-12.49.19,0,0,.46,2.31.46,4.63l-.18,24.91c0,2.31-.46,5.09-.46,5.09,6.01,0,6.01-2.77,6.01-5.09l.18-27.08c2.45,0,3.98-.1,5.55-.09,3.51.01,6.26,2.51,6.66,6.24.44,4.11-.99,7.17-3.98,8.53-2.2.89-6.97.76-6.97.76l9.76,13.12c1.39,1.85,3.27,3.62,9.33,3.62,0,0-1.66-1.57-3.28-3.75Zm57.59-11.15l4.24-9.31,4.26,9.31h-8.5Zm19.83,10.08l-14.06-30.9-14.06,30.9c-.65,1.42-1.9,3.54-2.67,4.81h.35c2.86,0,4.19-1.35,5.08-2.9.29-.5.53-1.02.76-1.52l.07-.16,3.48-7.65h10.93l3.5,7.65c1,2.14,2.13,4.57,8.92,4.57h.36s-1.7-2.68-2.67-4.81Zm-212.21-4.71l-.66.22c.2.12.48.21.88.21.02,0,.05,0,.07,0,.07,0,.12,0,.17.02h9.42c.1-.26.2-.53.29-.79h-9.36c-.24.13-.51.25-.81.34Zm-10.48.43s.05,0,.08,0c.41,0,.68-.09.88-.21l-.66-.22c-.3-.09-.57-.21-.81-.34h-9.41c.09.27.18.53.29.79h9.48s.1-.02.16-.02Zm10.99.72c-.37.23-1.12.46-1.86.47h-.02c-.07,0-.13-.01-.19-.03-.23.14-.76.29-1.23.34h12c.13-.26.26-.52.38-.79h-9.06s-.01.01-.02.01Zm-9.13.44c-.06.02-.12.03-.19.03h-.02c-.74,0-1.49-.24-1.85-.46,0,0-.02-.01-.03-.02h-9.12c.12.27.25.53.38.79h12.06c-.47-.05-1-.21-1.23-.34Zm3.5-24.65c9.69,0,17.57,7.92,17.57,17.65s-7.88,17.65-17.57,17.65-17.57-7.92-17.57-17.65,7.88-17.65,17.57-17.65Zm-17.91,17.65c-.41.11-.74.34-.96.68-.81,1.23-.21,3.73.26,5.74.17.72.33,1.4.4,1.9.01.09.02.18.04.27.09.62.18,1.33.05,1.77l-.04.14.14.03c.45.1,1.01.54,1.5.92.07.06.15.11.22.17.4.31.91.79,1.45,1.29,1.47,1.38,3.28,3.1,4.74,3.1.03,0,.07,0,.1,0,.42-.02.78-.19,1.08-.51-.11.41-.08.81.11,1.17.66,1.31,3.12,2.05,5.1,2.64.71.21,1.37.41,1.85.61.08.03.17.07.26.1.58.24,1.24.5,1.55.84l.1.11.1-.1c.31-.34.97-.6,1.55-.84.09-.04.17-.07.26-.1.47-.19,1.14-.39,1.84-.61,1.98-.59,4.44-1.33,5.1-2.64.19-.37.22-.77.1-1.19.3.3.66.47,1.07.49.03,0,.07,0,.1,0,1.45,0,3.27-1.71,4.74-3.1.54-.51,1.04-.98,1.45-1.29.07-.05.14-.11.22-.17.49-.39,1.06-.82,1.5-.92l.14-.03-.04-.14c-.14-.44-.04-1.14.05-1.76.01-.09.03-.19.04-.28.07-.5.23-1.18.4-1.9.48-2.01,1.07-4.5.26-5.74-.23-.35-.56-.58-.98-.68.41-.11.74-.34.96-.68.8-1.23.21-3.73-.26-5.74-.17-.72-.33-1.4-.4-1.9-.01-.09-.02-.18-.04-.28-.09-.62-.18-1.33-.05-1.76l.04-.14-.14-.03c-.45-.1-1.01-.54-1.5-.92-.07-.06-.15-.12-.22-.17-.4-.31-.91-.79-1.45-1.29-1.47-1.38-3.28-3.1-4.74-3.1-.03,0-.07,0-.1,0-.42.02-.78.19-1.08.51.11-.41.08-.81-.11-1.17-.66-1.31-3.12-2.05-5.1-2.64-.71-.21-1.37-.41-1.84-.61-.08-.03-.17-.07-.26-.1-.58-.24-1.24-.5-1.55-.84l-.1-.1-.1.1c-.31.34-.97.6-1.55.84-.09.04-.17.07-.26.1-.47.19-1.14.4-1.84.61-1.98.59-4.44,1.33-5.1,2.64-.19.37-.22.77-.1,1.19-.3-.3-.66-.47-1.07-.49-1.47-.09-3.34,1.68-4.84,3.09-.54.51-1.04.98-1.45,1.29-.07.05-.14.11-.22.17-.49.39-1.06.82-1.5.92l-.14.03.04.14c.14.44.04,1.14-.05,1.76-.01.09-.03.19-.04.27-.07.5-.23,1.18-.4,1.9-.48,2.01-1.07,4.51-.26,5.74.23.35.56.58.98.68Zm11.51,14.77h12.8c.54-.24,1.07-.5,1.58-.79h-15.97c.51.29,1.04.56,1.58.79Zm6.4,1.33c1.56,0,3.06-.22,4.49-.64h-8.98c1.43.41,2.93.64,4.49.64Zm3.9-16.09c-.11-.09-.44-.19-.84-.19-.18,0-.35.02-.51.06-.6.15-1.1.78-1.09,1.09.19.23.41.48.64.69.48.46.92.93.95,1.56.01.29-.03.56-.14.84-.22.56-.72.89-1.19,1.08,1.36-.06,2.35-.37,2.87-.91.34-.35.5-.81.46-1.37-.03-.39-.31-.77-.58-1.14-.39-.52-.79-1.06-.55-1.69,0,0,0,0-.01-.01Zm1.85.35c-.21,0-.53.02-.84.13-.36.13-.58.26-.67.41.11.22.27.44.43.65.3.4.6.82.64,1.28.04.64-.14,1.17-.54,1.58-.48.5-1.27.81-2.36.94.08,0,.16,0,.23,0,1.61,0,2.91-.36,3.66-1.03.47-.41.69-.91.66-1.48-.02-.38-.23-.68-.44-.97-.28-.4-.6-.84-.24-1.46-.09-.03-.29-.06-.55-.06Zm-3.1,3.59c.09-.24.13-.47.12-.72-.03-.53-.42-.96-.87-1.38-.15-.15-.93-.91-1.2-1.57l-.04-.11c-.19-.47-.32-.76-.63-.76-.31,0-.45.32-.64.79-.02.02-.53.99-1.29,1.71-.42.4-.79.82-.81,1.33-.01.26.03.49.12.72.32.83,1.53,1.2,2.58,1.2h.09c1.05,0,2.26-.37,2.58-1.2Zm-7.64-1.1c-.04.56.12,1.02.46,1.37.52.54,1.51.85,2.87.91-.47-.19-.97-.52-1.19-1.08-.11-.27-.15-.54-.14-.84.03-.63.47-1.1.95-1.56.22-.21.45-.46.64-.69,0-.32-.49-.94-1.09-1.09-.16-.04-.33-.06-.51-.06-.4,0-.73.1-.84.19,0,0,0,0-.01.01.24.63-.16,1.17-.55,1.69-.27.37-.56.75-.58,1.14Zm-1.94,0c-.03.57.2,1.06.66,1.48.75.66,2.05,1.03,3.67,1.03.08,0,.15,0,.23,0-1.09-.13-1.88-.44-2.36-.94-.4-.41-.58-.94-.54-1.58.03-.47.34-.88.64-1.28.16-.21.32-.43.43-.65-.09-.15-.31-.28-.67-.41-.3-.11-.62-.13-.84-.13-.26,0-.45.03-.55.06.36.61.04,1.06-.24,1.46-.21.29-.42.59-.44.97Zm3.74,3.18c.06-.04.11-.07.16-.1.1-.07.16-.14.22-.2.03-.03.06-.07.1-.1-.31,0-.62-.02-.92-.05h0s-.05.02-.06.03c-.04.03-.08.06-.11.09-.26.22-.67.57-1.5.57h-.03c.28.16.93.37,1.62.38h0c.07,0,.08-.02.08-.05,0-.04,0-.08,0-.12.04-.19.22-.31.44-.44Zm1.03.96c.17,0,.33-.02.45-.06.09-.03.14-.06.17-.1-.03-.04-.06-.07-.08-.1-.19-.29-.29-.77.05-1.13,0,0,0,0,.01-.01-.1,0-.21.02-.31.02-.51.06-.61.17-.73.31-.07.07-.14.15-.27.24-.05.04-.1.07-.15.1-.16.1-.31.2-.33.28,0,.02,0,.06.03.1.13.2.66.36,1.17.36Zm2.19-1.54h-.02c-.74,0-1.18.1-1.38.32-.23.25-.16.58-.02.8.03.05.07.09.11.13l.03.03c.11.09.24.14.38.19.31.11.66.24.89.78.24-.54.59-.67.89-.78.14-.05.27-.1.38-.19l.03-.03s.08-.08.11-.13c.14-.22.21-.55-.02-.8-.21-.22-.64-.32-1.38-.32h-.02Zm1.57,1.38s.09.08.17.1c.12.04.27.06.45.06.51,0,1.05-.16,1.17-.36.02-.04.03-.07.03-.1-.02-.08-.17-.18-.33-.28-.05-.03-.1-.07-.15-.1-.13-.09-.2-.17-.27-.24-.13-.14-.23-.24-.73-.31-.1,0-.21-.01-.31-.02,0,0,0,0,.01.01.34.37.24.84.05,1.13-.02.03-.05.07-.08.1Zm2.16-.19h0c.68,0,1.34-.22,1.62-.38h-.03c-.83,0-1.24-.35-1.5-.57-.04-.03-.07-.06-.11-.09-.01,0-.03-.02-.06-.02h0c-.3.03-.61.05-.92.05.04.03.07.07.1.1.06.07.12.13.22.2.05.03.1.07.16.1.21.14.4.25.44.44,0,.04,0,.07,0,.12,0,.02,0,.05.08.05Zm-7.13,5.17c.08.03,1.2.36,1.41.39.36.05.75.04,1.04-.21.02-.02.04-.04.06-.06.06-.06.1-.12.12-.19.15-.38-.21-.84-1.34-1.11-1.39-.34-3.51-.39-4.99.05-.84.25-1.19.6-1.18.95,0,.09.03.19.08.28h0c.09.17.26.33.49.47.11.07.24.13.37.18,0,0,0,0,0,0,.24.1.52.18.83.24.83.17,1.84.23,2.7.18,1.25-.07,1.16-.45.89-.62-.06-.03-.37-.2-.59-.37-.16-.12-.06-.26.11-.19Zm.94.61s.02.05.02.08c.02.07.01.14,0,.22-.1.41-.65.53-1.14.58h12.63c.36-.25.72-.51,1.06-.79h-12.27c-.08-.02-.18-.04-.3-.08Zm-4.11.7c-.33-.07-.62-.15-.86-.25h-.01s-.02-.01-.02-.01c-.15-.06-.29-.13-.41-.2-.08-.05-.16-.1-.23-.16h-2.07c.34.28.7.54,1.06.79h3.79c-.45-.03-.87-.09-1.25-.17Zm9.15-4.31c-.05-.15-.03-.32.05-.45.05-.08.12-.14.22-.2.09-.05.19-.09.32-.12h-17.14c.16.27.32.53.49.79h16.07s0-.02-.01-.03Zm6.02-.51c.64.16,1.13.34,1.47.54h3.36c.17-.26.34-.52.49-.79h-6.64c.47.07.92.15,1.31.25Zm2.05,1.35c-.02.16-.11.33-.27.48l-.05.05c-.05.05-.12.09-.18.14h2.18c.22-.26.42-.52.62-.79h-2.3s0,.08,0,.12Zm-17.64.67c.69-.18,1.52-.27,2.42-.27s1.8.1,2.53.27h3.08c-.07-.18-.06-.33-.03-.43.03-.14.11-.26.2-.37h-14.2c.2.27.41.54.62.79h5.39Zm-1.61,1.32c0-.19.05-.41.24-.63h-3.4c.26.27.52.54.8.79h2.39c-.01-.06-.02-.11-.02-.17Zm16.17-.38l-.11.02c-.96.19-1.96.3-2.89.3s-2.11-.11-2.87-.56h-2.36c.06.06.11.13.15.2.1.19.12.4.06.59h11.37c.28-.26.54-.52.8-.79h-3.17c-.3.09-.63.17-.97.24Zm-3.36-1.68c-.16,0-.36-.03-.58-.06-.23-.04-.49-.07-.76-.09-.07,0-.13,0-.2,0-.32,0-.62.04-.86.09-.33.08-.84.51-.25.99.48.48,1.55.75,3.01.75.91,0,1.88-.1,2.83-.29l.1-.02c1.21-.25,2.19-.63,2.61-1l.05-.04c.11-.1.17-.2.18-.29.02-.16-.12-.58-1.82-1.01-1.01-.26-2.37-.42-3.55-.42h-.07c-1.06,0-1.65.12-1.89.26-.06.03-.09.06-.12.1-.02.04-.04.1-.02.16.17.4.84.5,1.45.5.34.02.33.16.27.24-.1.12-.26.13-.38.13Zm-6.3-17.94l.02-.03c.73-.87,1.58-1.99,1.62-2.99,0-.1,0-.19,0-.29,0-.46-.01-.93.07-1.24.07-.28.18-.31.26-.31.01,0,.02,0,.04,0,.06,0,.09.08.1.22,0,.09,0,.34-.02.6-.03.59-.07,1.4.02,1.75.09.4.28.8.45,1.18.23.5.45.98.47,1.42.03.8-.36.86-.64.91-.13.02-.29.05-.29.2,0,.06.05.13.13.13.03,0,.07,0,.13-.02.09-.02.22-.06.38-.06.09,0,.18.01.26.04.24.07.43.25.51.47.07.2.07.55-.29,1.03-.07.1-.24.23-.62.3-.11.02-.12.09-.12.13,0,.05.05.1.13.1.04,0,.07,0,.11,0,.56,0,.99.12,1.2.34.09.1.14.21.13.34-.01.25-.35.34-.58.41-.16.04-.26.07-.27.18v.05s.08.07.08.07h.05s.07,0,.14-.03c.15-.04.29-.06.38-.06.04,0,.08,0,.1.01.07.02.09.06.09.08,0,.13-.19.35-.64.54h-.01s0,0,0,0c-.22.09-.71.15-1.24.15-.82,0-1.78-.15-1.95-.49-.04-.09-.02-.19.05-.3.02.02.04.04.08.06.54.29,1.27.33,1.65.33.27,0,.46-.02.54-.04.11-.02.26-.06.25-.18,0-.08-.07-.12-.19-.12-.02,0-.04,0-.06,0-.08,0-.2.01-.34.01-.52,0-1.03-.1-1.61-.31-.29-.09-.85-.43-.97-.52-.43-.34-.66-.91-.66-1.6-.04-1.11.76-2.06,1.1-2.47Zm2.57,6.24c-.09.01-.18.02-.27.03-.06,0-.12,0-.19,0-.15,0-.3-.01-.45-.03-.54-.07-.86-.27-.86-.42,0-.01,0-.02,0-.03.41.09.85.1,1.16.1.59,0,1.13-.06,1.42-.17.03.03.04.07.04.1,0,.15-.32.35-.86.42Zm-.45.57c-.23,0-.43-.12-.43-.27,0-.02,0-.05.02-.07.07,0,.13.01.2.02.07,0,.14,0,.21,0,.14,0,.27,0,.41-.02.01.02.02.05.02.07,0,.14-.2.27-.43.27Zm-3.66-4.13s.01.11.03.21c0,.05.02.1.03.16,0,.05.02.1.03.16-3.27,1.39-5.57,4.64-5.57,8.42,0,.5.04,1.01.13,1.52h2.63c-.07-.05-.13-.1-.19-.15-.56-.49-.84-1.11-.8-1.8.02-.5.28-.87.51-1.19.3-.42.47-.65.19-1.07-.08-.12-.07-.26.01-.37.16-.21.64-.24.91-.24.35,0,.71.06.98.15.21.08.39.16.53.24,0-.07-.02-.14-.05-.21h0s-.01-.06-.01-.06h0c-.02-.15.04-.27.15-.38.21-.18.64-.3,1.1-.3.21,0,.42.02.61.07.54.13.99.54,1.23.93.06-.1.11-.2.15-.29l.04-.1c.14-.36.31-.76.64-.93.11-.05.23-.08.35-.09h0s.02,0,.02,0c.13,0,.25.03.36.08.34.17.5.58.64.93l.04.1c.04.09.08.18.15.29.23-.4.68-.8,1.23-.93.19-.05.4-.07.61-.07.46,0,.9.12,1.1.3.12.1.17.23.15.37h0s-.01.06-.01.06h0c-.03.08-.05.15-.05.22.14-.09.32-.17.53-.24.28-.1.63-.15.98-.15.27,0,.74.03.91.24.09.11.09.26.01.37-.28.42-.11.65.19,1.07.23.32.49.68.51,1.19.03.69-.24,1.31-.8,1.8-.06.05-.12.1-.19.15h2.67c.09-.51.13-1.02.13-1.52,0-3.82-2.36-7.1-5.69-8.47-.07-.03-.14-.05-.21-.08.01-.04.02-.07.03-.11.05-.21.08-.45.08-.49.04-.45-.02-.9-.17-1.32l-.15-.35c-.13-.25-.29-.48-.49-.67-.05-.05-.1-.09-.14-.14h0s-.19-.19-.19-.19c-.05-.05-.1-.09-.15-.14-.68-.62-1.18-1.07-1.02-2.14.18-.99-.14-2.02-.54-2.28-.03-.02-.06-.03-.09-.04-.02-.15-.03-.24-.05-.25-.11-.2-.29-.26-.4-.28-.03,0-.06,0-.08,0-.2,0-.55.09-.7.66-.1.37-.09.88-.08,1.37,0,.1,0,.2,0,.27-.04.84-.81,1.86-1.39,2.56l-.19.23c-.2.24-.46.56-.69.96l-.18.35c-.22.48-.32.96-.3,1.41,0,.06,0,.13,0,.21Zm9.06,28.66l-.19.83.68-.13-.49-.69Zm-13.11-.16c.09-.03.16-.11.19-.22.03-.12.01-.21-.05-.29-.07-.08-.18-.14-.34-.18l-.08-.02-.19.67.1.03c.15.04.28.05.37.02Zm7.39.66l-.36.77h.69s-.34-.77-.34-.77Zm9.71-1.58l-.07.85.65-.23-.58-.62Zm-5.99,2.65c.29-.04.5-.13.65-.27.14-.14.2-.34.17-.58-.03-.23-.13-.41-.3-.51-.17-.11-.4-.14-.68-.11h-.11s.18,1.48.18,1.48h.1Zm13.62-7.35l-.03.84.63-.25-.6-.59Zm-21.29,5.96l-.46.71.68.1-.23-.82Zm-10.39-5.08l-.57.62.64.22-.07-.84Zm-5.04-2.57l-.06,1.65,1.25-1.09-.51,1.98-.22-.11.34-1.23-1.08.92.04-1.42-.75,1.04-.22-.11,1.22-1.64Zm-.75-2.68s.03-.16.32-.16c1.32.09,1.76,1.33,1.9,2.46-1.48-.83-2.31-1.88-2.22-2.29Zm3.22,3.76l.13,2.19-.24-.09-.03-.53-.82-.32-.38.37-.24-.09,1.57-1.53Zm.68.58l.07-.21,1.08.39-.07.21-.43-.15-.58,1.59-.22-.08.58-1.59-.42-.15Zm2.28,2.6l-.24-.08-.05-.52-.83-.29-.36.38-.24-.08,1.52-1.59.21,2.18Zm-5.16,1.45c-.05-.12-.11-.25-.18-.35-.17-.26-.38-.31-.53-.3-.57.03-1.18.92-1.5,1.52-.06-.38-.07-1.24,0-1.54.12-.51.37-.99.6-1.45.13-.26.27-.53.39-.81.52.35,1.08.64,1.7.89-.22.64-.43,1.32-.49,2.04Zm8.14-.61l.08,2.2-.24-.1-.02-.53-.82-.35-.39.35-.24-.1,1.63-1.48Zm-.52-2.17c.05-.15.13-.19.29-.19.06,0,.12,0,.2.01.06,0,.11.01.17.01,0,.15-.06.32-.11.5-.03.1-.06.21-.09.31-.02-.02-.05-.04-.07-.06-.29-.23-.46-.39-.39-.59Zm1.79,2.67l.13,1.65,1.13-1.21-.28,2.02-.24-.08.2-1.26-.98,1.03-.13-1.42-.63,1.11-.24-.08,1.03-1.76Zm1.86.72l.36.1c.21.06.36.15.45.27.09.12.11.27.07.44-.04.13-.1.23-.21.31-.11.08-.23.11-.39.09l.37.97-.28-.08-.33-.93-.1-.03-.22.78-.23-.07.52-1.84Zm1.4.38l.24.06-.45,1.86-.24-.06.45-1.86Zm.48.12l1.14.24-.04.21-.45-.09-.34,1.66-.24-.05.34-1.66-.45-.09.04-.21Zm2.72,2.42l-.26-.04-.15-.51-.88-.13-.29.44-.26-.04,1.22-1.83.62,2.11Zm.47-1.96c.22.28.44.55.67.81.22.27.45.54.67.81l.12-1.41.24.02-.16,1.99-1.33-1.62-.12,1.42-.24-.02.16-2Zm2.79.17l.91,2.01h-.26s-.22-.49-.22-.49h-.89s-.23.47-.23.47h-.26s.95-1.99.95-1.99Zm1.87.7c.26.23.52.47.77.71l-.08-1.41h.24s.11,1.98.11,1.98l-1.54-1.42.08,1.42h-.24s-.11-1.99-.11-1.99c.26.24.51.48.77.71Zm1.69-.8c.33-.04.61.01.82.15.22.15.35.37.38.66.04.29-.03.54-.21.73-.18.19-.43.31-.77.35l-.38.05-.24-1.9.4-.05Zm2.06-.4l1.29,1.78-.26.05-.31-.43-.88.17-.13.51-.26.05.54-2.13Zm2.37,1l.25-1.64.9,1.83-.24.07-.55-1.16-.23,1.41-.9-1.1.1,1.28-.24.07-.14-2.04,1.04,1.29Zm1.55-2.06l1.54,1.57-.25.09-.37-.38-.84.3-.05.53-.25.09.21-2.19Zm1.15-.34l.76.56.11-.94.26-.11-.15,1.24.33.76-.22.1-.33-.76-1.01-.74.26-.11Zm1.42-3.05c.1-.02.21-.05.26-.02.03.02.05.06.06.13.04.19-.14.41-.34.62-.07-.27-.11-.51-.13-.71.05,0,.1-.02.15-.03Zm.76,4.16l-.88-1.7.22-.11.88,1.7-.22.11Zm2.79-3.27l.09-1.65,1.06,1.75-.23.09-.65-1.1-.09,1.42-.99-1.02.22,1.26-.23.09-.33-2.02,1.14,1.2Zm1.49-2.18l1.58,1.52-.24.09-.38-.37-.82.32-.03.53-.24.09.12-2.19Zm1.81-.65l.08.2-.42.17.64,1.57-.22.09-.64-1.57-.42.17-.08-.2,1.06-.43Zm2-3.59c.28,0,.31.12.32.16.09.42-.74,1.47-2.22,2.29.12-.98.53-2.34,1.9-2.46Zm.91,6.44c.24.46.48.93.6,1.45.07.3.06,1.16,0,1.54-.32-.6-.94-1.49-1.5-1.52-.01,0-.02,0-.03,0-.14,0-.34.06-.5.3-.07.1-.13.23-.18.35-.06-.72-.26-1.4-.49-2.04.57-.23,1.13-.51,1.7-.89.12.28.26.55.39.81Zm-1.57-3.43l.22-.09.75,1.76-.22.09-.36-.84-.84.36.36.84-.22.09-.75-1.76.22-.09.3.71.84-.36-.3-.71Zm-40.87,2.64c-.12.29-.26.57-.4.84-.24.47-.5.96-.63,1.51-.05.21-.16,1.89.18,2.02.06.02.18.03.28-.17.36-.71.95-1.47,1.33-1.49.07,0,.17,0,.27.17.09.14.18.35.24.52.11.27.16.39.3.37.14-.03.14-.19.14-.31,0-.81.23-1.59.48-2.31.68.26,1.37.44,2.03.63.92.25,1.79.49,2.65.9l-.2.21c-.17.19-.26.42-.24.64.02.22.14.41.34.55,3.21,2.29,8.49,3.65,14.11,3.65,3.55,0,10.16-.53,14.63-4.04.1-.08.16-.19.17-.32.02-.25-.14-.52-.23-.62l-.17-.2c.9-.44,1.81-.69,2.77-.95.67-.18,1.35-.37,2.03-.63.25.73.48,1.5.48,2.31,0,.13,0,.29.14.31.14.03.19-.1.3-.37.07-.17.15-.38.24-.52.11-.16.21-.18.27-.17.38.02.97.77,1.33,1.49.1.2.22.19.28.17.34-.12.23-1.81.18-2.02-.13-.55-.38-1.04-.63-1.51-.14-.27-.29-.56-.4-.84.27-.19.53-.4.79-.64.85-.77.34-1.78-.06-2.6l-.08-.17c-.21-.42-.17-.84-.13-1.21.03-.35.06-.67-.15-.89-.19-.2-.55-.27-1.14-.24h0c-1.25.1-2.02,1.13-2.18,2.9-.1.05-.21.1-.31.15-1.56.72-3.56,1.13-4.88,1.4-.94.19-1.43.3-1.63.42-.21.14-.27.46-.25.82-.02.05,0,.11,0,.15,0,.02.01.05.01.06,0,.19.04.36.08.53.03.13.06.26.07.38-2.06,1.76-6.57,2.94-11.53,2.94-4.66,0-8.86-1-11.1-2.6.15-.48.49-1.77,0-2.09-.2-.13-.69-.23-1.63-.42-1.32-.27-3.32-.68-4.88-1.4-.11-.05-.21-.1-.31-.15-.16-1.79-.93-2.82-2.18-2.9,0,0-.01,0-.02,0h0c-.59-.03-.93.04-1.13.24-.21.22-.18.55-.15.89.03.37.07.79-.13,1.21l-.08.16c-.4.82-.91,1.83-.06,2.6.26.23.52.45.79.64Zm9.39,2.96l-.62.58.64.27-.02-.85Zm-5.92-4.01l-.6.6.63.25-.04-.84Zm30.85-12.56l-4-.34c0,.11-.02.21-.04.32l4,.34c.01-.1.03-.21.04-.32Zm-.13-3.52l-3.96.7c.02.1.03.21.05.31l3.96-.71c-.01-.1-.03-.21-.05-.31Zm-4.69-1.66c.04.1.09.19.13.29l3.65-1.71c-.04-.1-.09-.19-.13-.29l-3.65,1.71Zm1.97-4.45c-.07-.08-.13-.17-.2-.25l-3.09,2.6c.07.08.13.17.2.25l3.09-2.6Zm-2.41-2.37c-.08-.06-.17-.13-.26-.19l-2.35,3.29c.09.06.17.13.25.19l2.35-3.29Zm-4.38,2.08l1.46-3.77c-.1-.04-.2-.08-.3-.12l-1.46,3.76c.1.04.2.08.29.12Zm-17.16,10.24l3.94-.34c-.01-.1-.03-.21-.04-.32l-3.94.34c.01.11.02.21.04.32Zm4-3.14l-3.91-.7c-.02.1-.04.21-.05.31l3.91.7c.01-.1.03-.21.05-.31Zm-3-3.77l3.61,1.69c.04-.1.09-.19.13-.29l-3.61-1.69c-.04.1-.09.19-.13.29Zm5.06-.7l-3.06-2.57c-.07.08-.13.17-.2.25l3.06,2.57c.06-.08.13-.17.2-.25Zm1.37-1.35c.08-.07.16-.13.25-.2l-2.38-3.23c-.08.06-.17.13-.25.2l2.38,3.23Zm2.03-1.24l-1.63-3.67c-.1.04-.19.09-.29.13l1.63,3.67c.09-.05.19-.09.29-.13Zm13.39,8.62l6.98-.31c0-.11,0-.21,0-.32l-6.98.31c0,.11,0,.21,0,.32Zm-.33-2.46l6.68-2.11c-.03-.1-.06-.2-.09-.3l-6.67,2.11c.03.1.06.2.09.31Zm-.96-2.28l5.91-3.77c-.05-.09-.11-.18-.17-.27l-5.91,3.77c.06.09.11.18.16.27Zm3.22-7.13c-.08-.07-.15-.15-.23-.22l-4.73,5.17c.08.07.15.14.23.22l4.73-5.17Zm-3.33-2.48c-.09-.05-.18-.11-.28-.16l-3.29,6.19c.09.05.18.1.27.16l3.29-6.19Zm-17.57,14.03l-6.92-.31c0,.11,0,.21,0,.32l6.92.31c0-.11,0-.21,0-.32Zm.41-2.45l-6.62-2.09c-.03.1-.06.2-.09.3l6.63,2.09c.03-.1.06-.2.09-.31Zm1.04-2.25l-5.87-3.74c-.06.09-.11.18-.17.27l5.87,3.74c.05-.09.11-.18.16-.27Zm1.47-1.8l-4.79-5.06c-.08.07-.15.14-.23.22l4.79,5.06c.07-.08.15-.15.23-.22Zm-2.05-7.19l3.52,6.03c.09-.06.18-.11.27-.17l-3.52-6.03c-.09.05-.18.11-.27.16Zm-2.62.2l-.24-.21-.38.43c-.08.09-.11.19-.11.3,0,.12.04.21.13.28.1.09.25.16.44.2.19.04.41.06.65.04l.02-.14c-.15,0-.29-.02-.42-.05-.12-.04-.22-.09-.29-.15-.06-.05-.1-.12-.11-.21,0-.08.01-.16.07-.22l.24-.28Zm1.81-3.54s.1-.05.16-.05c.06,0,.11,0,.15.02l.57.25c.09-.05,0-.14-.25-.27-.13-.07-.22-.11-.26-.13-.12-.06-.25-.09-.37-.1-.13,0-.23.02-.31.07-.05.03-.08.07-.11.1l.3.22s.08-.08.13-.11Zm1.58-.61c.05-.03.1-.05.14-.07.08-.03.18-.05.3-.04.13,0,.27.03.42.08l.2-.09-.52-.46c-.08-.08-.16-.14-.26-.16-.09-.02-.18-.02-.27.02-.09.05-.16.09-.2.13l.3.21s.01-.04.04-.06c.03-.03.07-.05.1-.06.05-.02.1-.02.16,0,.07.03.14.07.2.14l.31.23-.04.02c-.3-.09-.53-.15-.69-.18-.18-.03-.31-.03-.39,0-.04.01-.07.03-.1.05-.03.02-.05.04-.06.06l.28.24s.04-.04.08-.07Zm-2.92,2.95l.44.46c-.02.14-.04.26-.08.35-.03.1-.08.17-.13.22-.05.05-.11.08-.18.09-.07.02-.13.01-.2,0,0,0-.01-.01-.01-.02,0-.01,0-.02,0-.02.08-.11.14-.22.16-.32.02-.11.02-.18-.02-.22-.03-.04-.09-.07-.16-.1-.07-.02-.15-.03-.24-.05.14-.14.28-.27.42-.4Zm5.59-2.39c-.07.07-.14.12-.21.15-.05.02-.09.02-.13,0-.04-.02-.07-.04-.09-.09-.03-.08-.02-.15.01-.22.03-.08.08-.13.16-.15.06-.02.13-.03.22-.02.08,0,.16.03.24.07-.06.11-.13.2-.2.27Zm-6.14,2.91s.03,0,.05.01c.02,0,.05.03.07.05.05.05.07.13.04.24-.03.1-.09.2-.18.28.2.13.41.21.62.22.21.02.37-.03.48-.14.05-.05.09-.11.12-.18.04-.07.06-.16.07-.24l.24.26.4-.09-1.11-1.17c.17-.15.33-.29.51-.43l.85,1.08.42-.03-1-1.27c.19-.14.37-.28.57-.42l.26.41-.15.1s-.04.04-.04.06c0,.02,0,.05.01.07.04.07.15.12.33.15.17.03.3.03.37-.02.03-.02.04-.04.06-.07,0-.03,0-.06-.02-.09l-.52-.81c.13-.09.26-.17.39-.26l.78,1.2.4-.03-.88-1.36c.4-.24.82-.47,1.24-.68l.22.44-.7.35s-.07.05-.08.09c-.01.04-.01.08,0,.12.04.09.13.16.25.22.12.06.22.08.28.04.02-.01.03-.03.04-.04.01-.02.01-.04,0-.06l-.06-.12s-.01-.05,0-.07c0-.02.01-.04.03-.05l.39-.19.28.56.4.02-.72-1.45c.45-.21.9-.39,1.37-.56l.19.52c-.12-.07-.24-.12-.35-.15-.11-.03-.19-.03-.25,0-.13.04-.23.13-.29.25-.06.12-.07.23-.03.35.05.13.16.23.33.32.17.09.32.11.45.06.06-.02.11-.06.16-.12.06-.05.11-.12.16-.21l.11.31.41.08-.26-.7c.03-.09.08-.17.14-.23.06-.07.12-.11.19-.14.04-.01.07,0,.1.01.04.02.06.05.08.09.03.07.04.16.03.26-.01.11-.04.21-.07.32l.37.09c.06-.23.05-.43-.02-.62-.05-.13-.15-.24-.29-.34-.15-.09-.28-.12-.38-.09-.05.02-.1.04-.14.08-.05.04-.1.09-.15.15l-.15-.42c.35-.11.7-.22,1.06-.31l-.08-.07h0s-.02-.01-.02-.01l-.22-.19c-3.45.92-6.45,2.94-8.6,5.67l.36.1c.34-.42.71-.83,1.09-1.21Zm5.27-4.63c.05-.02.11-.02.17-.01.06,0,.1.02.15.05l.5.36c.1-.03.04-.13-.18-.31-.11-.09-.19-.15-.23-.18-.11-.08-.22-.14-.34-.18-.12-.03-.23-.03-.32,0-.05.02-.1.04-.13.07l.25.27s.09-.06.15-.07Zm6.86,1.76c.07-.04.14-.05.23-.04l.2.02-.13-.25-.18-.02c-.11-.01-.21,0-.3.06-.08.05-.13.12-.15.21-.02.16.03.3.14.43.11.14.25.21.4.23.1.01.2,0,.27-.01.08-.02.16-.05.23-.1l-.13-.29c-.08.05-.17.1-.27.13-.09.03-.18.04-.26.03-.05,0-.1-.03-.13-.08-.03-.05-.05-.1-.04-.16,0-.07.04-.12.11-.16Zm3.14-.7c.07-.05.15-.06.23-.04l.36.1.08-.3-.55-.15c-.11-.03-.22-.02-.32.03-.1.05-.17.13-.2.24-.04.13-.03.29.01.48.05.19.13.39.25.6l.13-.05c-.06-.14-.11-.27-.14-.4-.02-.13-.02-.23,0-.32.02-.08.07-.14.14-.19Zm7.15,3.45c-.01.08-.05.15-.11.21-.05.06-.1.1-.14.12-.04.03-.08.05-.12.05-.03-.12-.04-.23-.03-.32,0-.09.03-.16.07-.21.04-.05.09-.08.15-.09.05-.01.1,0,.13.04.05.05.06.12.05.2Zm-.32-.5c-.13.03-.2.12-.23.31-.03.18-.01.39.07.62-.15.04-.3.04-.43-.02.03-.06.04-.1.04-.14,0-.04,0-.08-.02-.1-.03-.03-.08-.05-.14-.04-.06,0-.11.04-.16.08-.05.05-.06.11-.04.19.02.08.07.15.14.21l-.11.55.19.06.02-.54c.24.06.45.08.64.05.19-.02.34-.09.46-.2.2-.21.3-.61.02-.92-.09-.09-.23-.16-.45-.12Zm-.48,2.59c-.11-.01-.2-.07-.28-.16-.14-.16-.24-.31-.31-.46-.07-.14-.1-.28-.09-.4h-.14c-.01.18.01.36.08.55.07.2.18.38.32.55.11.12.23.2.36.22.14.03.26,0,.35-.08.08-.07.13-.18.14-.34.01-.15-.02-.27-.09-.35-.04-.04-.09-.08-.15-.1-.06-.03-.13-.05-.22-.05v.32c.05,0,.11,0,.16.01.06.02.1.04.13.07.02.03.04.06.04.09,0,.03,0,.06-.03.08-.08.07-.17.09-.28.07Zm-9.83-6.72c.2,0,.39.01.59.03l-.03.66-.59-.03.03-.65Zm6.72,1.7c.18.09.35.18.52.28l-.31.58-.52-.27.31-.59Zm-1.93.19c-.13.01-.24,0-.34-.04-.07-.03-.12-.07-.16-.13-.03-.06-.04-.12-.02-.17.03-.08.11-.14.24-.17.13-.03.26-.02.38.02.06.02.12.07.17.13.05.06.1.14.13.23-.13.06-.27.1-.4.12Zm-7.5-.44c.17.12.35.18.52.16.12-.01.22-.07.3-.17.08-.1.11-.22.1-.35,0-.05-.02-.1-.04-.15-.02-.04-.05-.08-.08-.13.08.05.15.09.22.11.07.03.13.04.19.03.07-.01.12-.03.15-.05l.05.55.37.16-.15-1.6c.21,0,.42-.01.64-.01.03,0,.06,0,.1,0l-.03.64h-.12s-.05,0-.07.02c-.02.01-.03.04-.03.07,0,.06.06.16.19.3.13.14.22.21.28.21.02,0,.04,0,.05-.03.02-.03.03-.05.03-.09v-.16s.6.03.6.03l-.02.43.34.25.08-1.62c.5.04.98.11,1.47.2l-.04.26-.5-.08c-.12-.02-.24,0-.34.06-.1.06-.16.15-.17.25-.03.15,0,.32.05.49.05.18.14.36.27.55l.13-.06c-.08-.11-.14-.23-.18-.35-.03-.12-.04-.24-.02-.36.01-.09.06-.15.13-.2.07-.05.14-.07.23-.06l.35.06-.14.81.31.29.27-1.61c.92.19,1.81.46,2.66.79l-.18.49c-.04-.13-.11-.25-.19-.35-.09-.1-.18-.17-.27-.2-.14-.06-.28-.06-.41-.01-.13.04-.22.13-.26.24-.05.14-.03.31.06.51.1.2.21.33.36.38.08.03.16.04.25.04.09,0,.18-.03.27-.07l-.11.29.25.34.57-1.52c.22.09.44.19.66.3l-.3.58-.1-.05s-.05-.01-.07,0c-.03,0-.05.02-.06.04-.03.05-.01.17.04.35.06.18.11.28.16.31.02.01.04,0,.06,0,.03-.01.05-.04.06-.06l.07-.14.52.27-.2.38.2.37.76-1.44c.19.11.37.22.56.34l-.77,1.17.17.39.89-1.37c.39.26.76.53,1.12.82l-.31.39-.62-.48s-.07-.04-.12-.03c-.04,0-.08.02-.1.06-.06.08-.09.18-.09.32,0,.14.03.23.08.27.02.01.04.02.05.01.02,0,.04,0,.06-.03l.08-.11s.04-.03.06-.04c.02,0,.04,0,.06,0l.34.27-.39.49.16.37,1-1.28c.15.12.29.25.43.38l.24-.25c-2.89-2.61-6.72-4.2-10.91-4.2-.48,0-.96.02-1.44.06l.22.33c.08,0,.15,0,.23-.01l.04.46s-.07.09-.12.11c-.04.03-.09.04-.15.05-.1.01-.18.01-.24,0-.06,0-.11-.01-.14-.03.05-.04.09-.1.11-.16.03-.06.04-.13.03-.19-.01-.13-.1-.24-.25-.35-.15-.11-.31-.15-.46-.14-.08,0-.15.03-.23.08-.08.04-.15.09-.22.16l.2.24c.07-.07.14-.13.23-.18.08-.04.16-.07.23-.08.07,0,.12,0,.17.04.05.03.08.08.08.13,0,.08,0,.16-.04.22-.02.06-.07.1-.14.11-.05,0-.1,0-.16,0-.07.02-.14.05-.2.09l.16.28c.13-.03.25-.08.38-.17.03.02.05.05.07.08.02.02.03.06.03.1.01.1-.01.18-.07.26-.07.08-.15.12-.24.13-.12.01-.24-.02-.37-.1-.13-.09-.24-.2-.33-.35l-.11.09c.12.22.27.39.45.52Zm12.92,4.65l.11.39,1.15-1.13c.09.1.17.19.25.29l.1-.41c-.2-.23-.41-.46-.63-.68l-.24.24c.1.1.19.2.28.3l-1.02,1.01Zm.71.78h.5v-.5h-.5v.5Zm.5-.49h.5v-.5h-.5v.5Zm-22.64,39.46c-.2.09-.39.14-.57.14-.13,0-.24-.04-.34-.11-.09-.08-.14-.16-.14-.26,0-.15.09-.29.29-.42.19-.13.4-.19.63-.19.11,0,.23.04.36.11.13.07.24.17.35.3-.18.18-.38.33-.58.43Zm-6.91.83c-.06-.06-.09-.13-.09-.22s.03-.16.09-.22c.06-.06.13-.09.22-.09s.16.03.22.09c.06.06.09.13.09.22s-.03.16-.09.22c-.06.06-.13.09-.22.09s-.16-.03-.22-.09Zm-2.79-1.97c-.05.11-.13.19-.22.23-.12-.04-.22-.11-.29-.22-.08-.1-.12-.21-.12-.33,0-.1.04-.18.12-.26.09-.08.18-.11.29-.11.09,0,.16.03.22.09.06.06.09.13.09.22,0,.15-.03.27-.09.38Zm14.84,1.99l.61.34v-2.85h.61l-.31-.54h-15.2l.34.54h.14v1.25l-.68-.31c.06-.06.11-.14.15-.24.04-.1.05-.2.05-.3,0-.24-.11-.48-.34-.72-.23-.24-.46-.37-.68-.37s-.4.07-.56.2c-.15.14-.22.3-.22.48,0,.15.07.31.21.47.14.15.33.29.57.41-.22.15-.59.34-1.12.58l.47.41c.58-.28,1-.53,1.25-.75l.54.27-1.59.98.44.37,1.49-1.02v.78l.61.34v-2.85h3.63v.47h-.71c-.25,0-.46.09-.62.26-.17.18-.26.39-.26.62,0,.29.15.6.47.94.32.33.61.49.89.49.01,0,.05,0,.12-.03l.09-.03c-.08.27-.19.48-.33.64-.14.16-.29.24-.45.24-.08,0-.14-.03-.19-.08-.05-.05-.08-.11-.08-.19,0-.08.04-.15.11-.22.09-.07.19-.12.3-.16l-.54-.34c-.08.02-.16.05-.22.11-.06.05-.1.1-.12.16-.23,0-.4-.03-.51-.1.12-.04.21-.11.27-.21.07-.1.1-.21.1-.33,0-.16-.05-.3-.16-.41-.1-.11-.23-.17-.38-.17-.19,0-.35.05-.48.17-.13.12-.2.27-.2.44,0,.24.13.44.39.6.26.16.57.24.94.24-.05.17.04.34.26.5.23.16.49.24.79.24.17,0,.34-.06.5-.19.16-.13.28-.3.38-.52l.27.58.37-.17-.51-.85c.1-.03.17-.08.22-.15.06-.08.09-.17.09-.26,0-.13-.06-.26-.17-.41-.11-.14-.23-.2-.34-.2-.12,0-.23.03-.31.1-.09.06-.13.14-.13.24,0,.09.03.19.1.31-.12.07-.22.1-.3.1-.2,0-.37-.07-.5-.22-.14-.15-.21-.34-.21-.56,0-.17.05-.32.16-.45.1-.13.23-.19.38-.19h1.15v-1.02h.97v2.44l.61.41v-2.85h2.79v.91c-.15-.19-.33-.34-.52-.45-.2-.11-.39-.16-.56-.16-.27,0-.49.07-.67.22-.19.15-.28.33-.28.56,0,.26.14.52.41.79.28.27.54.4.81.4.14,0,.29-.03.43-.09.14-.06.27-.15.39-.28v.54l.61.41v-2.85h1.04v2.44l.61.41v-2.85h2.32v.88h-1.36c-.08,0-.14.03-.19.08-.05.05-.08.12-.08.19,0,.17.07.35.21.53.14.19.28.28.4.28.04,0,.07-.01.09-.04.03-.02.05-.05.05-.09v-.24s.02-.08.05-.12c.02-.04.05-.05.09-.05h.75v1.08Zm.63.71c-.19-.16-.35-.24-.46-.24-.09,0-.18.01-.26.04-.07.02-.14.07-.21.13l.24.37c.06-.05.11-.08.16-.09.06-.03.12-.04.18-.04.15,0,.46.25.92.74l.37.38.2-.17c-.27-.29-.65-.67-1.13-1.12Zm7.56-2.68c-.11-.03-.2-.1-.27-.2-.07-.1-.1-.22-.1-.37,0-.1.03-.19.07-.26.05-.07.1-.11.16-.11.05,0,.08.03.1.08.03.05.04.11.04.19v.68Zm4.84-1.08h-4.3l.34.54h.68v1.15h-.95v-.98c0-.21-.1-.42-.31-.63-.21-.21-.43-.32-.64-.32-.18,0-.33.05-.45.17-.13.13-.19.27-.19.44,0,.06,0,.11.02.16l-.3-.54h-3.94l.31.54h2.47v.44c-.08,0-.17.04-.27.12-.1.08-.21.19-.3.33-.13-.15-.26-.27-.39-.35-.14-.08-.26-.12-.39-.12-.22,0-.41.08-.58.24-.16.16-.24.35-.24.57,0,.24.1.48.31.75.19.27.48.54.85.81l.17-.2c-.24-.2-.42-.39-.54-.58-.13-.2-.19-.38-.19-.54,0-.17.05-.3.14-.41.09-.11.2-.17.33-.17.08,0,.15.02.22.06.07.04.13.1.19.18-.14.29-.21.47-.24.54l.54.24c.07-.3.19-.56.34-.76.15-.19.31-.29.47-.29.1,0,.18.03.24.08.06.05.09.11.09.19,0,.14-.06.31-.21.5-.14.19-.35.38-.6.55l.51.47c.22-.23.38-.46.5-.68.12-.22.18-.42.18-.61,0-.21-.05-.39-.14-.56-.09-.16-.21-.27-.37-.33v-.47h.85c.04.16.12.3.26.43.2.18.43.3.7.35v.37h-.2c-.06,0-.12.02-.16.05-.04.04-.07.09-.07.15,0,.14.11.3.33.51.21.2.39.3.52.3.06,0,.11-.03.15-.08.04-.05.05-.11.05-.19v-.2h.95v.81l.61.34v-2.85h2.47v.47h-.88c-.22,0-.4.07-.56.2-.15.14-.22.3-.22.48,0,.27.07.54.22.83.14.29.35.58.62.87l.2-.14c-.18-.17-.31-.35-.41-.55-.09-.2-.14-.4-.14-.6,0-.15.05-.28.16-.38.1-.11.23-.16.38-.16h.61v1.42l.61.41v-2.85h.61l-.31-.54h-.71Zm-.15-.61c-.14-.21-.24-.34-.29-.41-.14-.19-.3-.34-.48-.46-.19-.11-.36-.17-.53-.17-.1,0-.18.03-.24.05l.27.58c.09-.03.18-.05.28-.05.1,0,.19.02.28.06.09.04.16.09.22.16l.64.85c.18,0,.13-.2-.15-.61Zm12.47,1.15h1.02v1.15h-1.02v-1.15Zm1.02,2.44l.61.41v-2.85h.61l-.3-.54h-11.47l.31.54h2.33v.47h-1.86l-.1.2c.28.08.51.21.69.38.17.18.26.37.26.57,0,.09-.04.16-.12.23-.1.08-.21.12-.32.14-.03-.07-.08-.12-.15-.17-.07-.05-.13-.07-.19-.07-.09,0-.16.03-.22.1-.06.07-.09.15-.09.24,0,.14.07.26.21.35.14.1.31.16.5.16l.41.91.31-.17-.54-.78c.19-.03.35-.11.49-.23.13-.12.19-.26.19-.41,0-.17-.05-.33-.15-.49-.09-.16-.22-.3-.39-.42h1.08v1.49l.61.34v-2.85h1.04v2.44l.61.41v-2.85h2.32v.88h-1.36c-.08,0-.14.03-.19.08-.05.05-.08.12-.08.19,0,.17.07.35.21.53.14.19.28.28.4.28.04,0,.07-.01.09-.04.03-.02.05-.05.05-.09v-.24s.02-.08.05-.12c.02-.04.05-.05.09-.05h.75v1.08l.61.34v-2.85h1.09v1.15h-.2s-.09.02-.12.05c-.04.03-.05.07-.05.12,0,.1.12.27.35.5.23.23.4.35.5.35.04,0,.07-.02.09-.05.03-.04.05-.09.05-.15v-.27h1.02v.75Zm.63.78c-.19-.16-.35-.24-.46-.24-.09,0-.18.01-.26.04-.07.02-.14.07-.21.13l.24.37c.06-.05.11-.08.16-.09.06-.03.12-.04.18-.04.15,0,.46.25.92.74l.37.38.2-.17c-.27-.29-.65-.67-1.13-1.12Z"/>
      <line class="cls-4" x1="266.65" y1="13.18" x2="266.65" y2="63.54"/>
    </g>
  </g>
</svg>